# xmcd
#
# Track frame offsets: 
#        150
#        3479
#        22064
#        27764
#        40509
#        58703
#        75335
#        80218
#        89862
#        111468
#        124301
#        137528
#        159432
#        163126
#        181719
#
# Disc length: 2810 seconds
#
# Revision: 7
# Processed by: cddbd v1.5.1PL0 Copyright (c) Steve Scherf et al.
# Submitted via: ExactAudioCopy v0.95a5
#
DISCID=bf0af80f
DTITLE=Various Artist - Kill Bill II
DYEAR=2004
DGENRE=Soundtrack
TTITLE0=Thurman, Urma - A Few Words From The Bride
TTITLE1=Shivaree - Goodnight Moon
TTITLE2=Morricone, Ennio - Il Tramonto
TTITLE3=Feathers, Charlie - Can't Hardly Stand It
TTITLE4=Lole Y Manuel - Tu Mirá
TTITLE5=Bacalov, Luis - Summertime Killer
TTITLE6=Reeves, Alan and Steele, Phil and Brigham, Philip - The Chase
TTITLE7=Carradine, David and Thurman, Uma - The Legend Of Pai Mei
TTITLE8=Morricone, Ennio - L'Arena
TTITLE9=Cash, Johnny - A Satisfied Mind
TTITLE10=Morricone, Ennio - A Silhouette Of Doom
TTITLE11=McLaren, Malcolm - About Her
TTITLE12=David Carradine and Uma Thurman - Truly And Utterly Bill
TTITLE13=Chingon - Malaguena Salerosa
TTITLE14=Kaji, Meiko - Urami Bushi
EXTD=The RZA! YEAR: 2004
EXTT0=
EXTT1=
EXTT2=
EXTT3=
EXTT4=
EXTT5=
EXTT6=
EXTT7=
EXTT8=
EXTT9=
EXTT10=
EXTT11=
EXTT12=
EXTT13=
EXTT14=
PLAYORDER=
